<svg id="5b53c3f3-8253-4a05-973c-76b6721d75c0" data-name="Calque 1" xmlns="http://www.w3.org/2000/svg" width="1987.81575" height="1987.81575" viewBox="0 0 1987.81575 1987.81575"><title>validatueur</title><path d="M2167.896,1823.896H180.08022V-163.91978H2167.896V1823.896Zm-959.0242-600.31575c-7.149-20.509-10.48408-23.66793-23.59767-23.81111-7.6182-.08312-15.23956-0.11321-22.85672.00813-11.88468.18929-18.15985,5.55885-20.3028,17.47072-2.05025,11.397-4.2518,22.78762-5.65792,34.27043-0.6585,5.37745-2.48379,8.27148-7.86985,9.57951a120.044,120.044,0,0,0-33.76282,14.02921c-4.40857,2.66179-7.49528,2.12523-11.44817-.89766-9.19784-7.03456-18.67949-13.7147-28.24746-20.24353-9.95747-6.79444-18.20536-6.12963-26.89273,2.01676-5.55491,5.20892-10.9286,10.62544-16.1673,16.15384-8.64126,9.11915-9.27756,17.12648-2.06632,27.61566q9.84211,14.31593,20.21247,28.26579c2.60913,3.51783,3.54683,6.284.97095,10.575a121.74415,121.74415,0,0,0-14.35045,34.69293c-1.249,5.29434-4.5748,6.46488-9.171,7.15615-11.77778,1.77129-23.54186,3.68139-35.24478,5.88913-11.76735,2.21988-16.89218,8.58284-17.07364,20.66542-0.11934,7.94848-.18686,15.90485.02845,23.84945,0.28872,10.65007,5.87391,17.27973,16.38225,19.30571,8.76951,1.69072,17.57555,3.50315,26.45081,4.25593,11.54081,0.97908,19.85349,4.22765,21.371,17.7197,0.67288,5.98232,4.21971,11.77936,7.0956,17.33227,2.263,4.36962,2.20016,7.43607-1.22927,11.36232-7.83418,8.96966-15.19072,18.37019-22.48246,27.796-7.43079,9.60547-7.26456,17.7066.40035,26.91724,4.65859,5.59817,9.56962,10.99224,14.49448,16.36132,9.12777,9.95092,17.263,11.05983,29.04071,3.86231,9.879-6.03729,19.74174-12.114,29.398-18.49651,3.68564-2.4361,6.48066-3.09921,10.533-.42954a141.06357,141.06357,0,0,0,42.41263,18.84341c4.4292,1.1481,6.40106,3.37623,7.02947,8.08948,1.617,12.12894,3.75353,24.19575,5.95629,36.23732,2.00378,10.9539,8.76879,16.68578,19.90112,16.98257,7.94472,0.212,15.903.19087,23.84921,0.00861,11.36056-.26051,17.91233-5.55473,20.0651-16.678,2.26259-11.69151,4.18846-23.45753,5.87943-35.246,0.73046-5.09146,2.33806-8.27573,7.92409-9.61142a113.748,113.748,0,0,0,32.88269-13.57638c4.81821-2.94293,8.07043-2.15569,12.3016,1.09641,9.44155,7.25661,19.247,14.05481,29.07851,20.7853,10.23582,7.00714,18.57052,6.20777,27.61614-2.4327q7.90274-7.54837,15.46355-15.45263c8.70963-9.14257,9.40332-17.11969,2.20859-27.59831-6.93021-10.09337-13.98383-20.11358-21.34455-29.894-2.76565-3.67484-3.22674-6.4968-.76637-10.57072a127.07251,127.07251,0,0,0,14.4005-34.66818c1.125-4.44861,3.35451-6.37679,8.04943-7,11.80145-1.56659,23.53336-3.69607,35.25594-5.80626,11.896-2.14137,17.39258-8.477,17.62918-20.22679q0.24025-11.92072-.001-23.84969c-0.2377-11.33648-5.62377-17.35217-16.774-20.02355-6.28069-1.50459-13.09818-.88237-19.25329-4.28,29.33235-75.84128,57.30425-151.71084,83.68833-228.13867C1565.013,792.52738,1690.36459,431.44393,1829.7822,75.42915c15.88058-40.55248,31.17037-81.41576,42.625-123.52685,5.5142-20.27144-2.771-36.22645-22.34255-43.64471A78.14805,78.14805,0,0,0,1831.836-96.257c-65.70836-7.86114-117.38423,12.24569-150.69075,72.859-19.656,35.77154-35.403,73.05024-49.95166,110.9678-98.73508,257.33028-192.512,516.50555-288.26209,774.94679C1298.55674,982.28985,1254.01833,1102.00243,1208.87177,1223.58022ZM916.65971,539.9461c-1.15362-3.054-2.328-6.10093-3.45825-9.16411-47.53819-128.83792-94.82951-257.771-144.9653-385.62939C748.47524,94.7574,729.02666,44.20392,705.07146-4.4312c-44.10017-89.53469-140.78094-103.63-207.76395-89.96449-20.74338,4.232-26.11735,15.02012-21.97727,35.8334,3.36024,16.893,8.372,33.32621,13.74209,49.64235,24.578,74.67659,55.06038,147.1498,82.43931,220.777,56.6078,152.22938,113.70508,304.29064,166.79511,457.80457,1.00626,2.90974,3.52747,5.73437,1.55883,9.93709-10.97526-.613-22.16194-1.35195-33.35967-1.83111-11.18165-.4785-18.37808,4.80474-21.07837,15.49248-1.94617,7.70283-3.6277,15.47659-5.25784,23.25423-2.44108,11.6465,1.2964,19.0813,12.29893,23.8631,10.92187,4.74686,21.87474,9.47564,33.05524,13.55059,5.31691,1.93783,7.10543,4.84763,6.989,10.25584a81.40536,81.40536,0,0,0,3.48064,25.49558c1.80017,5.89059.00188,9.07183-4.56868,12.42306-9.0751,6.65387-17.873,13.70014-26.59593,20.81655-10.232,8.3475-11.72731,16.08-5.60508,27.95055q4.77477,9.25778,9.99023,18.28659c6.60794,11.40431,14.256,14.38886,26.63482,10.2863,11.31367-3.74958,22.64147-7.50087,33.75262-11.79574,4.45425-1.72166,7.21469-1.00128,10.38331,2.34534a137.99585,137.99585,0,0,0,36.33063,27.35235c4.53525,2.37919,5.94082,5.21195,5.49412,10.21095-1.06086,11.87024-1.71378,23.78466-2.21654,35.69446-0.50653,11.99911,4.52991,18.69866,16.02849,21.61162,7.38274,1.87006,14.83107,3.49793,22.286,5.06282,11.88141,2.49422,19.02457-.94061,23.975-12.07349,4.83768-10.87928,9.35376-21.91229,13.63717-33.02211,1.74939-4.53719,3.99032-7.11077,9.25353-7.10033,12.33891,0.02439,24.38564-2.32277,36.13073-5.95441,4.45231-1.37658,7.30551-.43815,10.28836,3.13331,7.64174,9.14985,15.59,18.05011,23.58833,26.89382,9.10975,10.07274,17.21742,11.17425,29.02949,4.11408,5.39857-3.22674,10.715-6.59641,15.99385-10.01693,12.83828-8.31868,15.12562-15.35313,9.47886-29.28781-4.22875-10.4353-8.26493-20.96865-13.02423-31.16067-2.326-4.98128-1.8555-8.237,1.94808-12.20235a117.39373,117.39373,0,0,0,20.64067-29.0219c2.48973-5.01805,5.76046-6.246,11.08464-5.74183,11.86163,1.123,23.77628,1.77681,35.6836,2.29808,10.58764,0.46351,17.709-4.8759,20.34649-15.12677,2.06214-8.01437,3.82894-16.11028,5.52-24.21316,2.20944-10.58594-1.38671-18.1331-11.21587-22.68273-7.80051-3.61065-15.6569-7.41284-23.88433-9.71589-12.39576-3.46984-19.11751-9.88679-17.79724-23.64536,0.48984-5.10384-.9036-10.60511-2.42779-15.62468-1.5294-5.03649-.06219-7.88466,3.928-10.84791,9.57022-7.10712,18.94182-14.49594,28.17727-22.03593,9.1342-7.45718,10.9209-16.01915,5.644-26.43122-3.43744-6.78249-7.13867-13.44242-10.9778-20.00759-6.33014-10.82492-13.99857-13.71136-25.95982-9.74616-10.999,3.6462-22.00129,7.31843-32.82014,11.455-4.6692,1.78524-7.74682,1.31294-11.25276-2.46255a135.68633,135.68633,0,0,0-36.94448-28.16071c-4.9322-2.56709-6.27311-5.73115-5.75415-11.07657,1.15125-11.85835,1.70656-23.77689,2.39315-35.67735,0.48335-8.37844-2.50824-16.253-10.38185-18.58612C947.61816,541.87288,933.036,535.11849,916.65971,539.9461Z" transform="translate(-180.08022 163.91978)" style="fill:#fefefe"/><path d="M1208.87177,1223.58022c45.14656-121.57779,89.685-241.29037,134.0597-361.06362,95.75-258.44124,189.527-517.61651,288.26209-774.94679,14.54866-37.91756,30.29565-75.19627,49.95166-110.9678,33.30653-60.61333,84.9824-80.72016,150.69075-72.859a78.14805,78.14805,0,0,1,18.22871,4.5146c19.57156,7.41826,27.85676,23.37327,22.34255,43.64471-11.45466,42.11108-26.74445,82.97437-42.625,123.52685-139.41761,356.01478-264.76925,717.09823-389.5011,1078.41345-26.38408,76.42783-54.356,152.29739-83.68833,228.13867,6.15511,3.39758,12.9726,2.77536,19.25329,4.28,11.15022,2.67138,16.53629,8.68707,16.774,20.02355q0.25008,11.92017.001,23.84969c-0.23661,11.74976-5.73322,18.08541-17.62918,20.22679-11.72258,2.11019-23.45449,4.23967-35.25594,5.80626-4.69493.62319-6.92439,2.55137-8.04943,7a127.07251,127.07251,0,0,1-14.4005,34.66818c-2.46037,4.07392-1.99928,6.89588.76637,10.57072,7.36072,9.78044,14.41434,19.80065,21.34455,29.894,7.19473,10.47862,6.501,18.45574-2.20859,27.59831q-7.53763,7.91238-15.46355,15.45263c-9.04562,8.64047-17.38032,9.43985-27.61614,2.4327-9.83153-6.73049-19.637-13.52869-29.07851-20.7853-4.23117-3.2521-7.48339-4.03934-12.3016-1.09641a113.748,113.748,0,0,1-32.88269,13.57638c-5.586,1.33569-7.19364,4.52-7.92409,9.61142-1.691,11.78846-3.61684,23.55448-5.87943,35.246-2.15278,11.12329-8.70454,16.4175-20.0651,16.678-7.94618.18225-15.90449,0.20336-23.84921-.00861-11.13233-.29679-17.89734-6.02867-19.90112-16.98257-2.20277-12.04157-4.33929-24.10838-5.95629-36.23732-0.62841-4.71325-2.60027-6.94138-7.02947-8.08948a141.06357,141.06357,0,0,1-42.41263-18.84341c-4.05232-2.66968-6.84734-2.00656-10.533.42954-9.65625,6.38249-19.519,12.45922-29.398,18.49651-11.77766,7.19752-19.91294,6.08862-29.04071-3.86231-4.92486-5.36908-9.83589-10.76316-14.49448-16.36132-7.66492-9.21064-7.83115-17.31176-.40035-26.91724,7.29174-9.42577,14.64828-18.8263,22.48246-27.796,3.42943-3.92625,3.49229-6.9927,1.22927-11.36232-2.87589-5.55291-6.42272-11.34995-7.0956-17.33227-1.51751-13.492-9.83019-16.74063-21.371-17.7197-8.87526-.75278-17.6813-2.5652-26.45081-4.25593-10.50835-2.026-16.09353-8.65564-16.38225-19.30571-0.21531-7.9446-.14779-15.901-0.02845-23.84945,0.18146-12.08259,5.30629-18.44555,17.07364-20.66542,11.70292-2.20774,23.467-4.11784,35.24478-5.88913,4.59616-.69126,7.922-1.86181,9.171-7.15615a121.74415,121.74415,0,0,1,14.35045-34.69293c2.57588-4.291,1.63818-7.05713-.97095-10.575q-10.34909-13.95374-20.21247-28.26579c-7.21123-10.48918-6.57494-18.49651,2.06632-27.61566,5.2387-5.5284,10.61239-10.94492,16.1673-16.15384,8.68737-8.14638,16.93525-8.81119,26.89273-2.01676,9.568,6.52883,19.04963,13.209,28.24746,20.24353,3.95288,3.02289,7.0396,3.55945,11.44817.89766a120.044,120.044,0,0,1,33.76282-14.02921c5.38607-1.308,7.21135-4.20205,7.86985-9.57951,1.40612-11.48281,3.60768-22.87341,5.65792-34.27043,2.14295-11.91186,8.41812-17.28143,20.3028-17.47072,7.61717-.12134,15.23852-0.09125,22.85672-0.00813C1198.38769,1199.91229,1201.72278,1203.0712,1208.87177,1223.58022Zm-34.118,276.59751c45.34634-.0364,82.3999-37.15937,82.07083-82.22487A82.09913,82.09913,0,1,0,1174.7538,1500.17773Z" transform="translate(-180.08022 163.91978)" style="fill:#010101"/><path d="M916.65971,539.9461c16.37625-4.82761,30.95846,1.92679,45.54855,6.25,7.87362,2.33309,10.8652,10.20767,10.38185,18.58612-0.68659,11.90046-1.24189,23.819-2.39315,35.67735-0.519,5.34542.82194,8.50949,5.75415,11.07657a135.68633,135.68633,0,0,1,36.94448,28.16071c3.50594,3.77549,6.58355,4.2478,11.25276,2.46255,10.81885-4.13659,21.8211-7.80882,32.82014-11.455,11.96125-3.9652,19.62968-1.07875,25.95982,9.74616,3.83913,6.56517,7.54036,13.2251,10.9778,20.00759,5.27692,10.41207,3.49022,18.974-5.644,26.43122-9.23545,7.54-18.607,14.92881-28.17727,22.03593-3.9902,2.96325-5.45741,5.81142-3.928,10.84791,1.52419,5.01957,2.91763,10.52085,2.42779,15.62468-1.32028,13.75857,5.40148,20.17552,17.79724,23.64536,8.22744,2.30305,16.08382,6.10524,23.88433,9.71589,9.82916,4.54963,13.42531,12.09678,11.21587,22.68273-1.69109,8.10288-3.45789,16.19879-5.52,24.21316-2.63752,10.25087-9.75884,15.59028-20.34649,15.12677-11.90731-.52127-23.822-1.1751-35.6836-2.29808-5.32419-.50416-8.59491.72378-11.08464,5.74183a117.39373,117.39373,0,0,1-20.64067,29.0219c-3.80358,3.96532-4.27407,7.22106-1.94808,12.20235,4.7593,10.192,8.79548,20.72536,13.02423,31.16067,5.64676,13.93469,3.35942,20.96913-9.47886,29.28781-5.27887,3.42052-10.59529,6.79019-15.99385,10.01693-11.81206,7.06017-19.91974,5.95866-29.02949-4.11408-7.99835-8.84371-15.94659-17.744-23.58833-26.89382-2.98285-3.57146-5.836-4.50989-10.28836-3.13331-11.74508,3.63164-23.79181,5.9788-36.13073,5.95441-5.26321-.01044-7.50414,2.56314-9.25353,7.10033-4.28341,11.10982-8.79949,22.14283-13.63717,33.02211-4.9504,11.13287-12.09357,14.56771-23.975,12.07349-7.45494-1.56489-14.90327-3.19276-22.286-5.06282-11.49859-2.913-16.535-9.61251-16.02849-21.61162,0.50276-11.9098,1.15568-23.82421,2.21654-35.69446,0.44671-4.999-.95887-7.83175-5.49412-10.21095a137.99585,137.99585,0,0,1-36.33063-27.35235c-3.16862-3.34662-5.92906-4.067-10.38331-2.34534-11.11115,4.29488-22.439,8.04616-33.75262,11.79574-12.37883,4.10256-20.02688,1.118-26.63482-10.2863q-5.222-9.01262-9.99023-18.28659c-6.12223-11.87055-4.62692-19.603,5.60508-27.95055,8.72292-7.11641,17.52083-14.16268,26.59593-20.81655,4.57056-3.35123,6.36884-6.53247,4.56868-12.42306a81.40536,81.40536,0,0,1-3.48064-25.49558c0.11642-5.40821-1.6721-8.318-6.989-10.25584-11.1805-4.075-22.13337-8.80373-33.05524-13.55059-11.00253-4.78181-14.74-12.2166-12.29893-23.8631,1.63014-7.77764,3.31168-15.55139,5.25784-23.25423,2.70028-10.68775,9.89671-15.971,21.07837-15.49248,11.19773,0.47916,22.38442,1.21811,33.35967,1.83111,1.96865-4.20272-.55257-7.02735-1.55883-9.93709-53.09-153.51392-110.18731-305.57519-166.79511-457.80457-27.37893-73.62723-57.86131-146.10043-82.43931-220.777-5.37005-16.31614-10.38185-32.74931-13.74209-49.64235-4.14008-20.81329,1.23389-31.60143,21.97727-35.8334,66.983-13.66554,163.66378.4298,207.76395,89.96449,23.9552,48.63511,43.40378,99.18859,63.16469,149.5838C818.37194,273.011,865.66327,401.94407,913.20146,530.782,914.33172,533.84517,915.50609,536.89208,916.65971,539.9461ZM896.6651,836.283c44.82792,0.02657,81.80043-36.70374,81.87166-81.33534,0.07256-45.47678-36.65527-82.42575-81.8668-82.35974a81.9016,81.9016,0,0,0-82.33013,81.8227C814.24227,799.59908,851.10205,836.25611,896.6651,836.283Z" transform="translate(-180.08022 163.91978)" style="fill:#010101"/><path d="M1174.7538,1500.17773a81.87147,81.87147,0,1,1,82.07083-82.22487C1257.1537,1463.01836,1220.10014,1500.14133,1174.7538,1500.17773Z" transform="translate(-180.08022 163.91978)" style="fill:#fefefe"/><path d="M896.6651,836.283c-45.563-.02694-82.42283-36.684-82.32528-81.87239A81.9016,81.9016,0,0,1,896.67,672.588c45.21153-.066,81.93936,36.883,81.8668,82.35974C978.46553,799.5793,941.493,836.30962,896.6651,836.283Z" transform="translate(-180.08022 163.91978)" style="fill:#fefefe"/></svg>